Coordinates
version=1
nRows=31
nColumns=38
inDegrees=no

Units are S.I. units (second, meters, Newtons, ...)
If the header above contains a line with 'inDegrees', this indicates whether rotational values are in degrees (yes) or radians (no).

endheader
time	pelvis_tilt	pelvis_list	pelvis_rotation	pelvis_tx	pelvis_ty	pelvis_tz	hip_flexion_r	hip_adduction_r	hip_rotation_r	knee_angle_r	ankle_angle_r	subtalar_angle_r	mtp_angle_r	hip_flexion_l	hip_adduction_l	hip_rotation_l	knee_angle_l	ankle_angle_l	subtalar_angle_l	mtp_angle_l	lumbar_extension	lumbar_bending	lumbar_rotation	arm_flex_r	arm_add_r	arm_rot_r	elbow_flex_r	pro_sup_r	wrist_flex_r	wrist_dev_r	arm_flex_l	arm_add_l	arm_rot_l	elbow_flex_l	pro_sup_l	wrist_flex_l	wrist_dev_l
13.2	-1.18362	1.43091	-0.513745	0.668218	-0.0932359	0.97889	-0.0141897	0.0745891	-0.203496	0.271725	0.106349	0	0	-0.173292	-0.0851927	-0.261026	0	0.0472791	0	0	-0.452556	0.156752	0.19475	0.976016	-0.363768	0.496968	0.643691	1.08273	0	0	0.852465	-0.0978	0.26511	0.71765	1.25279	0	0
13.21	-1.17865	1.43051	-0.517732	0.66823	-0.0930564	0.978945	-0.0149017	0.0747885	-0.204087	0.271746	0.106425	0	0	-0.173875	-0.0853999	-0.260392	0	0.047042	0	0	-0.457128	0.156601	0.194347	0.983919	-0.362047	0.499592	0.639676	1.07984	0	0	0.860702	-0.0972671	0.264577	0.712788	1.25293	0	0
13.22	-1.1745	1.43034	-0.52082	0.668226	-0.0929016	0.978978	-0.0152635	0.0747487	-0.205258	0.272055	0.106718	0	0	-0.174226	-0.0854898	-0.259678	0	0.0472272	0	0	-0.461366	0.156255	0.193689	0.991607	-0.360166	0.502964	0.635583	1.0781	0	0	0.868616	-0.096987	0.263964	0.708264	1.2532	0	0
13.23	-1.17157	1.43031	-0.52265	0.668223	-0.0927733	0.978993	-0.0154406	0.0746679	-0.206093	0.272231	0.106661	0	0	-0.174408	-0.0855181	-0.259031	0	0.0471198	0	0	-0.465273	0.155836	0.192873	0.998949	-0.358227	0.506321	0.631666	1.07798	0	0	0.87635	-0.0969163	0.26387	0.703751	1.25339	0	0
13.24	-1.17049	1.4304	-0.522616	0.668212	-0.0926691	0.978995	-0.0153079	0.0746059	-0.206766	0.272514	0.106778	0	0	-0.174304	-0.0855751	-0.258381	0	0.0466354	0	0	-0.468886	0.155441	0.19228	1.00619	-0.35658	0.508732	0.62797	1.07802	0	0	0.883948	-0.0967995	0.264543	0.699112	1.25311	0	0
13.25	-1.17113	1.43064	-0.520839	0.668188	-0.0925937	0.978987	-0.0149223	0.0745913	-0.207446	0.272729	0.106636	0	0	-0.173865	-0.0856485	-0.257563	0	0.0460467	0	0	-0.47209	0.155021	0.191644	1.01275	-0.355127	0.511669	0.624215	1.07596	0	0	0.891295	-0.096858	0.26578	0.69449	1.25274	0	0
13.26	-1.17152	1.43087	-0.519238	0.668158	-0.0925512	0.978978	-0.0146103	0.0745361	-0.208643	0.272904	0.106681	0	0	-0.173455	-0.0857528	-0.256715	0	0.0456888	0	0	-0.475193	0.154546	0.191025	1.0188	-0.353889	0.514051	0.620937	1.07456	0	0	0.89836	-0.0969636	0.267298	0.690087	1.25187	0	0
13.27	-1.17189	1.43109	-0.517726	0.668115	-0.0925496	0.978969	-0.0144619	0.0745178	-0.20973	0.272884	0.10668	0	0	-0.173136	-0.0858657	-0.25583	0	0.0461695	0	0	-0.478127	0.154014	0.190332	1.02421	-0.353247	0.519131	0.619031	1.06201	0	0	0.905036	-0.0975996	0.270286	0.68639	1.24524	0	0
13.28	-1.17797	1.43173	-0.510841	0.66804	-0.0926214	0.97891	-0.0134989	0.0746384	-0.210193	0.272842	0.10677	0	0	-0.171974	-0.0859781	-0.255247	0	0.0471874	0	0	-0.479957	0.153481	0.189938	1.02909	-0.352402	0.521737	0.617033	1.05817	0	0	0.910863	-0.0979419	0.27193	0.682788	1.24325	0	0
13.29	-1.18752	1.43229	-0.50076	0.667968	-0.0927905	0.978832	-0.0124088	0.0750202	-0.210553	0.272344	0.106523	0	0	-0.170644	-0.086269	-0.255091	0	0.0472238	0	0	-0.481098	0.15325	0.189668	1.03302	-0.351706	0.524815	0.615934	1.05181	0	0	0.915759	-0.0983976	0.273566	0.679639	1.24174	0	0
13.3	-1.18597	1.43184	-0.501707	0.667944	-0.0927579	0.978917	-0.0131298	0.0754991	-0.210749	0.271612	0.105477	0	0	-0.170988	-0.0866627	-0.254767	0	0.0465789	0	0	-0.484617	0.153094	0.189361	1.0374	-0.349863	0.522988	0.612867	1.06506	0	0	0.921571	-0.0987422	0.274716	0.675567	1.24677	0	0
13.31	-1.18583	1.4312	-0.501492	0.667947	-0.0928253	0.978976	-0.0139414	0.0761126	-0.210978	0.270738	0.104566	0	0	-0.171447	-0.0872077	-0.254757	0	0.0460747	0	0	-0.48781	0.15333	0.189338	1.04205	-0.34946	0.527399	0.611809	1.05811	0	0	0.926746	-0.0994102	0.278074	0.671955	1.24546	0	0
13.32	-1.23761	1.43441	-0.453876	0.667752	-0.092832	0.978366	-0.00259868	0.0755961	-0.208369	0.277299	0.107797	0	0	-0.162459	-0.0872179	-0.260442	0	0.048864	0	0	-0.48249	0.152625	0.192574	1.04829	-0.358304	0.577551	0.62535	0.892071	0	0	0.929274	-0.103315	0.295954	0.6731	1.19659	0	0
13.33	-1.17223	1.43014	-0.511528	0.667564	-0.0925739	0.979138	-0.0160518	0.0815179	-0.202882	0.270994	0.100061	0	0	-0.166236	-0.0899318	-0.254646	0	0.0472377	0	0	-0.495385	0.152429	0.18837	1.05065	-0.35051	0.537047	0.611199	1.04241	0	0	0.937	-0.100631	0.287425	0.666426	1.23753	0	0
13.34	-1.17832	1.42995	-0.505755	0.66747	-0.0928881	0.979102	-0.0160075	0.0822351	-0.20232	0.270268	0.0997537	0	0	-0.165956	-0.0905096	-0.255257	0	0.0478506	0	0	-0.496914	0.152384	0.188889	1.05312	-0.350261	0.539483	0.610579	1.04	0	0	0.94027	-0.101218	0.289762	0.664276	1.23732	0	0
13.35	-1.18433	1.42975	-0.500203	0.66742	-0.0932651	0.979052	-0.0159457	0.0828878	-0.20189	0.269721	0.0993742	0	0	-0.165796	-0.0910667	-0.255765	0	0.0483827	0	0	-0.49816	0.152343	0.189282	1.05499	-0.349552	0.541506	0.609455	1.03797	0	0	0.942882	-0.101953	0.291419	0.662712	1.23751	0	0
13.36	-1.19082	1.42964	-0.494233	0.667321	-0.0936958	0.978991	-0.0157507	0.0834606	-0.201352	0.26932	0.0988724	0	0	-0.165584	-0.09152	-0.256013	0	0.0487712	0	0	-0.499124	0.152239	0.189863	1.05661	-0.348931	0.542124	0.608733	1.03814	0	0	0.945089	-0.102453	0.292787	0.661368	1.2381	0	0
13.37	-1.19961	1.42975	-0.485794	0.667282	-0.0941358	0.978907	-0.0150981	0.0840046	-0.200975	0.269246	0.0989975	0	0	-0.164964	-0.0920334	-0.255865	0	0.0490824	0	0	-0.499522	0.152163	0.190334	1.05745	-0.348385	0.542493	0.608451	1.03743	0	0	0.946919	-0.102815	0.294128	0.6601	1.23883	0	0
13.38	-1.20909	1.42983	-0.476486	0.667183	-0.0946277	0.978818	-0.0143952	0.0845782	-0.200673	0.269269	0.0996317	0	0	-0.164234	-0.0926113	-0.255711	0	0.0494511	0	0	-0.499666	0.152251	0.190631	1.05726	-0.347725	0.541411	0.608884	1.0371	0	0	0.948245	-0.103075	0.295053	0.6591	1.23984	0	0
13.39	-1.21565	1.42987	-0.470525	0.667121	-0.0952419	0.978763	-0.0143545	0.0849514	-0.200047	0.269021	0.100139	0	0	-0.164187	-0.0928668	-0.256459	0	0.0498586	0	0	-0.49994	0.152149	0.191364	1.05689	-0.347421	0.540041	0.609638	1.03873	0	0	0.948718	-0.10307	0.295104	0.658448	1.24142	0	0
13.4	-1.2222	1.42991	-0.464087	0.667081	-0.095878	0.978704	-0.0143253	0.0853334	-0.200134	0.26873	0.100391	0	0	-0.164093	-0.0931995	-0.256536	0	0.0503669	0	0	-0.499999	0.152211	0.191652	1.0562	-0.347259	0.538902	0.61057	1.03956	0	0	0.948718	-0.103036	0.294716	0.658006	1.24327	0	0
13.41	-1.22823	1.43002	-0.45826	0.667054	-0.0966038	0.978649	-0.014478	0.0855833	-0.200258	0.268362	0.100668	0	0	-0.164183	-0.0933967	-0.256805	0	0.0507994	0	0	-0.499866	0.152184	0.191811	1.05477	-0.347005	0.537357	0.611837	1.03985	0	0	0.947942	-0.103207	0.294314	0.658044	1.24548	0	0
13.42	-1.23518	1.43019	-0.451018	0.667036	-0.0973237	0.97858	-0.0144475	0.0859037	-0.200521	0.267992	0.100914	0	0	-0.164004	-0.0937136	-0.256313	0	0.051237	0	0	-0.499508	0.152274	0.191432	1.05249	-0.346697	0.535071	0.613618	1.04042	0	0	0.946842	-0.103642	0.294154	0.658506	1.24805	0	0
13.43	-1.24028	1.43046	-0.445852	0.667002	-0.0981532	0.978519	-0.0146353	0.0858942	-0.20076	0.267849	0.101313	0	0	-0.164164	-0.0936844	-0.256235	0	0.0516991	0	0	-0.499107	0.152079	0.191064	1.04941	-0.34638	0.53204	0.615875	1.0422	0	0	0.945185	-0.104162	0.293872	0.659253	1.25078	0	0
13.44	-1.24576	1.43065	-0.440028	0.667007	-0.0989593	0.978443	-0.0146975	0.0859697	-0.201157	0.267908	0.1018	0	0	-0.164203	-0.0937909	-0.255803	0	0.052323	0	0	-0.498742	0.152087	0.190511	1.04661	-0.346229	0.528102	0.619169	1.04599	0	0	0.943425	-0.104779	0.293584	0.660359	1.2535	0	0
13.45	-1.24864	1.43079	-0.437135	0.667079	-0.0999664	0.978378	-0.0151259	0.0858224	-0.201595	0.268272	0.102788	0	0	-0.164805	-0.0936742	-0.256064	0	0.0528507	0	0	-0.498511	0.152008	0.190088	1.04385	-0.347241	0.529777	0.624659	1.0328	0	0	0.941081	-0.106169	0.295328	0.662972	1.24628	0	0
13.46	-1.25632	1.4312	-0.429016	0.667081	-0.100761	0.978284	-0.0147907	0.0857579	-0.201859	0.268533	0.103399	0	0	-0.16452	-0.0936791	-0.255485	0	0.053439	0	0	-0.497653	0.151955	0.189672	1.03979	-0.346677	0.517935	0.629538	1.05331	0	0	0.938747	-0.106143	0.290585	0.665672	1.2576	0	0
13.47	-1.26358	1.43145	-0.420708	0.667118	-0.101589	0.978169	-0.0143513	0.0858143	-0.202834	0.269058	0.10418	0	0	-0.164129	-0.0939452	-0.254159	0	0.0541633	0	0	-0.496911	0.152209	0.18874	1.03649	-0.347191	0.512387	0.635402	1.05649	0	0	0.936839	-0.106857	0.287789	0.670365	1.25834	0	0
13.48	-1.27012	1.43144	-0.413667	0.667188	-0.102531	0.978057	-0.0142258	0.0859061	-0.203349	0.269644	0.10519	0	0	-0.164201	-0.0941629	-0.253736	0	0.0550005	0	0	-0.496213	0.152668	0.188351	1.03354	-0.3481	0.507588	0.640687	1.05976	0	0	0.934628	-0.107438	0.284408	0.675775	1.25819	0	0
13.49	-1.27722	1.4315	-0.406364	0.667301	-0.103534	0.977951	-0.0141451	0.0859133	-0.203614	0.270149	0.106409	0	0	-0.164325	-0.0942865	-0.253778	0	0.0558691	0	0	-0.49512	0.153005	0.188053	1.03014	-0.349228	0.503989	0.645456	1.06073	0	0	0.932087	-0.108133	0.282084	0.680788	1.25736	0	0
13.5	-1.28729	1.43169	-0.395858	0.667439	-0.104517	0.977829	-0.0136158	0.0860432	-0.203861	0.270566	0.107294	0	0	-0.163937	-0.0945157	-0.253301	0	0.0567844	0	0	-0.493339	0.153437	0.1876	1.02617	-0.350582	0.50128	0.649986	1.06018	0	0	0.929473	-0.1088	0.28142	0.684793	1.25608	0	0
